TAS-Beginner-Bold.ufo
<glyph name="dollar" format="2">
  <advance width="570"/>
  <unicode hex="0024"/>
  <outline>
    <contour>
      <point x="276" y="-7" type="curve" smooth="yes"/>
      <point x="374" y="-7"/>
      <point x="464" y="58"/>
      <point x="492" y="167" type="curve" smooth="yes"/>
      <point x="521" y="291"/>
      <point x="461" y="357"/>
      <point x="327" y="392" type="curve" smooth="yes"/>
      <point x="286" y="403"/>
      <point x="255" y="422"/>
      <point x="264" y="454" type="curve" smooth="yes"/>
      <point x="277" y="508"/>
      <point x="329" y="543"/>
      <point x="381" y="543" type="curve" smooth="yes"/>
      <point x="410" y="543"/>
      <point x="440" y="513"/>
      <point x="453" y="474" type="curve" smooth="yes"/>
      <point x="461" y="449"/>
      <point x="487" y="437"/>
      <point x="512" y="441" type="curve" smooth="yes"/>
      <point x="548" y="448"/>
      <point x="558" y="482"/>
      <point x="552" y="503" type="curve" smooth="yes"/>
      <point x="525" y="599"/>
      <point x="460" y="641"/>
      <point x="385" y="641" type="curve" smooth="yes"/>
      <point x="284" y="641"/>
      <point x="189" y="579"/>
      <point x="164" y="478" type="curve" smooth="yes"/>
      <point x="143" y="388"/>
      <point x="185" y="324"/>
      <point x="305" y="292" type="curve" smooth="yes"/>
      <point x="364" y="276"/>
      <point x="405" y="246"/>
      <point x="391" y="187" type="curve" smooth="yes"/>
      <point x="378" y="131"/>
      <point x="329" y="92"/>
      <point x="278" y="92" type="curve" smooth="yes"/>
      <point x="231" y="92"/>
      <point x="184" y="127"/>
      <point x="178" y="180" type="curve" smooth="yes"/>
      <point x="176" y="208"/>
      <point x="160" y="225"/>
      <point x="123" y="223" type="curve" smooth="yes"/>
      <point x="89" y="221"/>
      <point x="74" y="202"/>
      <point x="76" y="171" type="curve" smooth="yes"/>
      <point x="88" y="60"/>
      <point x="178" y="-7"/>
    </contour>
    <contour>
      <point x="225" y="-96" type="curve" smooth="yes"/>
      <point x="267" y="-96"/>
      <point x="276" y="-71"/>
      <point x="281" y="-52" type="curve" smooth="yes"/>
      <point x="450" y="635" type="line" smooth="yes"/>
      <point x="460" y="679"/>
      <point x="438" y="700"/>
      <point x="406" y="700" type="curve" smooth="yes"/>
      <point x="372" y="700"/>
      <point x="357" y="684"/>
      <point x="350" y="656" type="curve" smooth="yes"/>
      <point x="179" y="-34" type="line" smooth="yes"/>
      <point x="171" y="-67"/>
      <point x="187" y="-96"/>
    </contour>
  </outline>
</glyph>
<glyph name="percent" format="2">
  <advance width="840"/>
  <unicode hex="0025"/>
  <outline>
    <contour>
      <point x="252" y="0" type="curve" smooth="yes"/>
      <point x="272" y="0"/>
      <point x="285" y="10"/>
      <point x="301" y="32" type="curve" smooth="yes"/>
      <point x="695" y="566" type="line" smooth="yes"/>
      <point x="734" y="619"/>
      <point x="696" y="650"/>
      <point x="659" y="650" type="curve" smooth="yes"/>
      <point x="639" y="650"/>
      <point x="626" y="640"/>
      <point x="609" y="618" type="curve" smooth="yes"/>
      <point x="215" y="84" type="line" smooth="yes"/>
      <point x="176" y="31"/>
      <point x="215" y="0"/>
    </contour>
    <contour>
      <point x="262" y="314" type="curve" smooth="yes"/>
      <point x="358" y="314"/>
      <point x="448" y="416"/>
      <point x="448" y="535" type="curve" smooth="yes"/>
      <point x="448" y="603"/>
      <point x="405" y="650"/>
      <point x="331" y="650" type="curve" smooth="yes"/>
      <point x="235" y="650"/>
      <point x="144" y="549"/>
      <point x="144" y="429" type="curve" smooth="yes"/>
      <point x="144" y="361"/>
      <point x="188" y="314"/>
    </contour>
    <contour>
      <point x="268" y="410" type="curve" smooth="yes"/>
      <point x="251" y="410"/>
      <point x="245" y="425"/>
      <point x="245" y="439" type="curve" smooth="yes"/>
      <point x="245" y="490"/>
      <point x="279" y="554"/>
      <point x="325" y="554" type="curve" smooth="yes"/>
      <point x="342" y="554"/>
      <point x="348" y="539"/>
      <point x="348" y="525" type="curve" smooth="yes"/>
      <point x="348" y="470"/>
      <point x="309" y="410"/>
    </contour>
    <contour>
      <point x="581" y="0" type="curve" smooth="yes"/>
      <point x="677" y="0"/>
      <point x="768" y="101"/>
      <point x="768" y="221" type="curve" smooth="yes"/>
      <point x="768" y="289"/>
      <point x="724" y="336"/>
      <point x="650" y="336" type="curve" smooth="yes"/>
      <point x="554" y="336"/>
      <point x="464" y="234"/>
      <point x="464" y="115" type="curve" smooth="yes"/>
      <point x="464" y="47"/>
      <point x="507" y="0"/>
    </contour>
    <contour>
      <point x="587" y="96" type="curve" smooth="yes"/>
      <point x="570" y="96"/>
      <point x="564" y="111"/>
      <point x="564" y="125" type="curve" smooth="yes"/>
      <point x="564" y="176"/>
      <point x="598" y="240"/>
      <point x="644" y="240" type="curve" smooth="yes"/>
      <point x="661" y="240"/>
      <point x="667" y="225"/>
      <point x="667" y="211" type="curve" smooth="yes"/>
      <point x="667" y="156"/>
      <point x="629" y="96"/>
    </contour>
  </outline>
</glyph>
<glyph name="parenleft" format="2">
  <advance width="341"/>
  <unicode hex="0028"/>
  <outline>
    <contour>
      <point x="170" y="-195" type="curve" smooth="yes"/>
      <point x="193" y="-185"/>
      <point x="214" y="-160"/>
      <point x="192" y="-121" type="curve" smooth="yes"/>
      <point x="159" y="-59"/>
      <point x="143" y="12"/>
      <point x="143" y="89" type="curve" smooth="yes"/>
      <point x="143" y="261"/>
      <point x="239" y="448"/>
      <point x="365" y="560" type="curve" smooth="yes"/>
      <point x="396" y="587"/>
      <point x="392" y="614"/>
      <point x="375" y="633" type="curve" smooth="yes"/>
      <point x="360" y="649"/>
      <point x="332" y="660"/>
      <point x="299" y="631" type="curve" smooth="yes"/>
      <point x="153" y="505"/>
      <point x="41" y="296"/>
      <point x="41" y="89" type="curve" smooth="yes"/>
      <point x="41" y="2"/>
      <point x="60" y="-84"/>
      <point x="105" y="-165" type="curve" smooth="yes"/>
      <point x="124" y="-202"/>
      <point x="148" y="-204"/>
    </contour>
  </outline>
</glyph>
<glyph name="comma" format="2">
  <advance width="219"/>
  <unicode hex="002C"/>
  <outline>
    <contour>
      <point x="54" y="-79" type="curve" smooth="yes"/>
      <point x="80" y="-79"/>
      <point x="101" y="-68"/>
      <point x="109" y="-37" type="curve" smooth="yes"/>
      <point x="135" y="67" type="line" smooth="yes"/>
      <point x="147" y="113"/>
      <point x="114" y="129"/>
      <point x="87" y="129" type="curve" smooth="yes"/>
      <point x="61" y="129"/>
      <point x="41" y="119.0"/>
      <point x="33" y="87" type="curve" smooth="yes"/>
      <point x="7" y="-17" type="line" smooth="yes"/>
      <point x="-4" y="-62"/>
      <point x="28" y="-79"/>
    </contour>
  </outline>
</glyph>
<glyph name="period" format="2">
  <advance width="219"/>
  <unicode hex="002E"/>
  <outline>
    <contour>
      <point x="93" y="0" type="curve" smooth="yes"/>
      <point x="126" y="0"/>
      <point x="156" y="30"/>
      <point x="156" y="65" type="curve" smooth="yes"/>
      <point x="156" y="98"/>
      <point x="126" y="126"/>
      <point x="93" y="126" type="curve" smooth="yes"/>
      <point x="58" y="126"/>
      <point x="31" y="98"/>
      <point x="31" y="65" type="curve" smooth="yes"/>
      <point x="31" y="30"/>
      <point x="58" y="0"/>
    </contour>
  </outline>
</glyph>
<glyph name="slash" format="2">
  <advance width="403"/>
  <unicode hex="002F"/>
  <outline>
    <contour>
      <point x="73" y="0" type="curve" smooth="yes"/>
      <point x="93" y="0"/>
      <point x="110" y="12"/>
      <point x="124" y="34" type="curve" smooth="yes"/>
      <point x="435" y="568" type="line" smooth="yes"/>
      <point x="468" y="623"/>
      <point x="433" y="650"/>
      <point x="397" y="650" type="curve" smooth="yes"/>
      <point x="377" y="650"/>
      <point x="360" y="638"/>
      <point x="346" y="616" type="curve" smooth="yes"/>
      <point x="35" y="82" type="line" smooth="yes"/>
      <point x="2" y="27"/>
      <point x="37" y="0"/>
    </contour>
  </outline>
</glyph>
<glyph name="zero" format="2">
  <advance width="451"/>
  <unicode hex="0030"/>
  <outline>
    <contour>
      <point x="199" y="0" type="curve" smooth="yes"/>
      <point x="300" y="0"/>
      <point x="398" y="121"/>
      <point x="447" y="345" type="curve" smooth="yes"/>
      <point x="494" y="563"/>
      <point x="432" y="650"/>
      <point x="329" y="650" type="curve" smooth="yes"/>
      <point x="207" y="650"/>
      <point x="105" y="517"/>
      <point x="76" y="274" type="curve" smooth="yes"/>
      <point x="54" y="81"/>
      <point x="113" y="0"/>
    </contour>
    <contour>
      <point x="200" y="97" type="curve" smooth="yes"/>
      <point x="161" y="97"/>
      <point x="172" y="219"/>
      <point x="179" y="276" type="curve" smooth="yes"/>
      <point x="197" y="432"/>
      <point x="247" y="553"/>
      <point x="324" y="553" type="curve" smooth="yes"/>
      <point x="377" y="553"/>
      <point x="358" y="416"/>
      <point x="345" y="354" type="curve" smooth="yes"/>
      <point x="313" y="209"/>
      <point x="263" y="97"/>
    </contour>
  </outline>
</glyph>
<glyph name="six" format="2">
  <advance width="436"/>
  <unicode hex="0036"/>
  <outline>
    <contour>
      <point x="180" y="0" type="curve" smooth="yes"/>
      <point x="297" y="0"/>
      <point x="400" y="122"/>
      <point x="400" y="245" type="curve" smooth="yes"/>
      <point x="400" y="335"/>
      <point x="356" y="379"/>
      <point x="294" y="379" type="curve" smooth="yes"/>
      <point x="254" y="379"/>
      <point x="204" y="355"/>
      <point x="180" y="338" type="curve" smooth="yes"/>
      <point x="142" y="310"/>
      <point x="153" y="278"/>
      <point x="163" y="264" type="curve" smooth="yes"/>
      <point x="175" y="249"/>
      <point x="197" y="232"/>
      <point x="234" y="258" type="curve" smooth="yes"/>
      <point x="247" y="268"/>
      <point x="266" y="283"/>
      <point x="283" y="283" type="curve" smooth="yes"/>
      <point x="301" y="283"/>
      <point x="299" y="254"/>
      <point x="299" y="239" type="curve" smooth="yes"/>
      <point x="299" y="169"/>
      <point x="243" y="96"/>
      <point x="191" y="96" type="curve" smooth="yes"/>
      <point x="162" y="96"/>
      <point x="147" y="119"/>
      <point x="147" y="159" type="curve" smooth="yes"/>
      <point x="147" y="263"/>
      <point x="263" y="446"/>
      <point x="348" y="571" type="curve" smooth="yes"/>
      <point x="380" y="617"/>
      <point x="342" y="650"/>
      <point x="312" y="650" type="curve" smooth="yes"/>
      <point x="294" y="650"/>
      <point x="279" y="648"/>
      <point x="261" y="622" type="curve" smooth="yes"/>
      <point x="174" y="496"/>
      <point x="46" y="275"/>
      <point x="46" y="158" type="curve" smooth="yes"/>
      <point x="46" y="54"/>
      <point x="102" y="0"/>
    </contour>
  </outline>
</glyph>
<glyph name="colon" format="2">
  <advance width="219"/>
  <unicode hex="003A"/>
  <outline>
    <contour>
      <point x="93" y="0" type="curve" smooth="yes"/>
      <point x="126" y="0"/>
      <point x="156" y="30"/>
      <point x="156" y="65" type="curve" smooth="yes"/>
      <point x="156" y="98"/>
      <point x="126" y="126"/>
      <point x="93" y="126" type="curve" smooth="yes"/>
      <point x="58" y="126"/>
      <point x="31" y="98"/>
      <point x="31" y="65" type="curve" smooth="yes"/>
      <point x="31" y="30"/>
      <point x="58" y="0"/>
    </contour>
    <contour>
      <point x="138" y="233" type="curve" smooth="yes"/>
      <point x="171" y="233"/>
      <point x="201" y="263"/>
      <point x="201" y="298" type="curve" smooth="yes"/>
      <point x="201" y="331"/>
      <point x="171" y="359"/>
      <point x="138" y="359" type="curve" smooth="yes"/>
      <point x="103" y="359"/>
      <point x="76" y="331"/>
      <point x="76" y="298" type="curve" smooth="yes"/>
      <point x="76" y="263"/>
      <point x="103" y="233"/>
    </contour>
  </outline>
</glyph>
<glyph name="semicolon" format="2">
  <advance width="219"/>
  <unicode hex="003B"/>
  <outline>
    <contour>
      <point x="64" y="-79" type="curve" smooth="yes"/>
      <point x="90" y="-79"/>
      <point x="111" y="-68"/>
      <point x="119" y="-37" type="curve" smooth="yes"/>
      <point x="145" y="67" type="line" smooth="yes"/>
      <point x="157" y="113"/>
      <point x="124" y="129"/>
      <point x="97" y="129" type="curve" smooth="yes"/>
      <point x="71" y="129"/>
      <point x="51" y="119.0"/>
      <point x="43" y="87" type="curve" smooth="yes"/>
      <point x="17" y="-17" type="line" smooth="yes"/>
      <point x="6" y="-62"/>
      <point x="38" y="-79"/>
    </contour>
    <contour>
      <point x="138" y="233" type="curve" smooth="yes"/>
      <point x="171" y="233"/>
      <point x="201" y="263"/>
      <point x="201" y="298" type="curve" smooth="yes"/>
      <point x="201" y="331"/>
      <point x="171" y="359"/>
      <point x="138" y="359" type="curve" smooth="yes"/>
      <point x="103" y="359"/>
      <point x="76" y="331"/>
      <point x="76" y="298" type="curve" smooth="yes"/>
      <point x="76" y="263"/>
      <point x="103" y="233"/>
    </contour>
  </outline>
</glyph>
<glyph name="equal" format="2">
  <advance width="426"/>
  <unicode hex="003D"/>
  <outline>
    <contour>
      <point x="88" y="120" type="curve" smooth="yes"/>
      <point x="315" y="120" type="line" smooth="yes"/>
      <point x="349.0" y="120.0"/>
      <point x="361.0" y="144.0"/>
      <point x="361" y="163" type="curve" smooth="yes"/>
      <point x="361.0" y="183.0"/>
      <point x="349.0" y="206.0"/>
      <point x="315" y="206" type="curve" smooth="yes"/>
      <point x="88" y="206" type="line" smooth="yes"/>
      <point x="54.0" y="206.0"/>
      <point x="42.0" y="183.0"/>
      <point x="42" y="163" type="curve" smooth="yes"/>
      <point x="42.0" y="143.0"/>
      <point x="54.0" y="120.0"/>
    </contour>
    <contour>
      <point x="121" y="251" type="curve" smooth="yes"/>
      <point x="348" y="251" type="line" smooth="yes"/>
      <point x="382.0" y="251.0"/>
      <point x="394.0" y="275.0"/>
      <point x="394" y="294" type="curve" smooth="yes"/>
      <point x="394.0" y="314.0"/>
      <point x="382.0" y="337.0"/>
      <point x="348" y="337" type="curve" smooth="yes"/>
      <point x="121" y="337" type="line" smooth="yes"/>
      <point x="87.0" y="337.0"/>
      <point x="75.0" y="314.0"/>
      <point x="75" y="294" type="curve" smooth="yes"/>
      <point x="75.0" y="274.0"/>
      <point x="87.0" y="251.0"/>
    </contour>
  </outline>
</glyph>
<glyph name="question" format="2">
  <advance width="456"/>
  <unicode hex="003F"/>
  <outline>
    <contour>
      <point x="179" y="0" type="curve" smooth="yes"/>
      <point x="212" y="0"/>
      <point x="242" y="30"/>
      <point x="242" y="65" type="curve" smooth="yes"/>
      <point x="242" y="98"/>
      <point x="212" y="126"/>
      <point x="179" y="126" type="curve" smooth="yes"/>
      <point x="144" y="126"/>
      <point x="117" y="98"/>
      <point x="117" y="65" type="curve" smooth="yes"/>
      <point x="117" y="30"/>
      <point x="144" y="0"/>
    </contour>
    <contour>
      <point x="210" y="175" type="curve" smooth="yes"/>
      <point x="229" y="175"/>
      <point x="255" y="184"/>
      <point x="263" y="219" type="curve" smooth="yes"/>
      <point x="277" y="277" type="line"/>
      <point x="251" y="256" type="line"/>
      <point x="359" y="256"/>
      <point x="449" y="332"/>
      <point x="477" y="447" type="curve" smooth="yes"/>
      <point x="506" y="565"/>
      <point x="440" y="650"/>
      <point x="327" y="650" type="curve" smooth="yes"/>
      <point x="227" y="650"/>
      <point x="147" y="587"/>
      <point x="120" y="482" type="curve" smooth="yes"/>
      <point x="109" y="436"/>
      <point x="135" y="418"/>
      <point x="165" y="418" type="curve" smooth="yes"/>
      <point x="185" y="418"/>
      <point x="209" y="427"/>
      <point x="219" y="462" type="curve" smooth="yes"/>
      <point x="232" y="517"/>
      <point x="268" y="554"/>
      <point x="320" y="554" type="curve" smooth="yes"/>
      <point x="368" y="554"/>
      <point x="389" y="512"/>
      <point x="377" y="463" type="curve" smooth="yes"/>
      <point x="361" y="398"/>
      <point x="314" y="350"/>
      <point x="252" y="350" type="curve" smooth="yes"/>
      <point x="203" y="350"/>
      <point x="188" y="336"/>
      <point x="180" y="303" type="curve" smooth="yes"/>
      <point x="164" y="239" type="line" smooth="yes"/>
      <point x="152" y="192"/>
      <point x="179" y="175"/>
    </contour>
  </outline>
</glyph>
<glyph name="A" format="2">
  <advance width="497"/>
  <unicode hex="0041"/>
  <outline>
    <contour>
      <point x="40" y="0" type="curve" smooth="yes"/>
      <point x="70" y="0"/>
      <point x="79" y="6"/>
      <point x="96" y="34" type="curve" smooth="yes"/>
      <point x="393" y="516" type="line"/>
      <point x="342" y="530" type="line"/>
      <point x="347" y="46" type="line"/>
      <point x="347" y="26"/>
      <point x="350" y="0"/>
      <point x="397" y="0" type="curve" smooth="yes"/>
      <point x="434" y="0"/>
      <point x="447" y="19"/>
      <point x="447" y="49" type="curve" smooth="yes"/>
      <point x="440" y="605" type="line" smooth="yes"/>
      <point x="440" y="625"/>
      <point x="423" y="650"/>
      <point x="391" y="650" type="curve" smooth="yes"/>
      <point x="360" y="650"/>
      <point x="352" y="637"/>
      <point x="338" y="616" type="curve" smooth="yes"/>
      <point x="3" y="72" type="line" smooth="yes"/>
      <point x="-27" y="23"/>
      <point x="9" y="0"/>
    </contour>
    <contour>
      <point x="172" y="239" type="line"/>
      <point x="398" y="239" type="line"/>
      <point x="396" y="335" type="line"/>
      <point x="226" y="335" type="line"/>
    </contour>
  </outline>
</glyph>
<glyph name="D" format="2">
  <advance width="524"/>
  <unicode hex="0044"/>
  <outline>
    <contour>
      <point x="91" y="0" type="curve" smooth="yes"/>
      <point x="130" y="0"/>
      <point x="139" y="23"/>
      <point x="145" y="41" type="curve" smooth="yes"/>
      <point x="281" y="587" type="line" smooth="yes"/>
      <point x="293" y="629"/>
      <point x="279" y="650"/>
      <point x="238" y="650" type="curve" smooth="yes"/>
      <point x="199" y="650"/>
      <point x="190" y="634"/>
      <point x="183" y="608" type="curve" smooth="yes"/>
      <point x="45" y="60" type="line" smooth="yes"/>
      <point x="36" y="30"/>
      <point x="52" y="0"/>
    </contour>
    <contour>
      <point x="151" y="0" type="line" smooth="yes"/>
      <point x="351" y="0"/>
      <point x="484" y="124"/>
      <point x="537" y="377" type="curve" smooth="yes"/>
      <point x="572" y="543"/>
      <point x="494" y="650"/>
      <point x="335" y="650" type="curve" smooth="yes"/>
      <point x="238" y="650" type="line"/>
      <point x="221" y="553" type="line"/>
      <point x="329" y="553" type="line" smooth="yes"/>
      <point x="420" y="553"/>
      <point x="457" y="484"/>
      <point x="436" y="385" type="curve" smooth="yes"/>
      <point x="396" y="200"/>
      <point x="304" y="102"/>
      <point x="154" y="97" type="curve" smooth="yes"/>
      <point x="121" y="96" type="line"/>
      <point x="91" y="0" type="line"/>
    </contour>
  </outline>
</glyph>
<glyph name="J" format="2">
  <advance width="447"/>
  <unicode hex="004A"/>
  <outline>
    <contour>
      <point x="184" y="0" type="curve" smooth="yes"/>
      <point x="273" y="0"/>
      <point x="343" y="62"/>
      <point x="375" y="197" type="curve" smooth="yes"/>
      <point x="473" y="587" type="line" smooth="yes"/>
      <point x="482" y="626"/>
      <point x="469" y="648"/>
      <point x="431" y="650" type="curve" smooth="yes"/>
      <point x="396" y="652"/>
      <point x="381" y="635"/>
      <point x="373" y="606" type="curve" smooth="yes"/>
      <point x="275" y="213" type="line" smooth="yes"/>
      <point x="257" y="143"/>
      <point x="229" y="97"/>
      <point x="187" y="97" type="curve" smooth="yes"/>
      <point x="151" y="97"/>
      <point x="146" y="130"/>
      <point x="146" y="165" type="curve" smooth="yes"/>
      <point x="146" y="224"/>
      <point x="124" y="231"/>
      <point x="97" y="231" type="curve" smooth="yes"/>
      <point x="74" y="231"/>
      <point x="45" y="221"/>
      <point x="45" y="165" type="curve" smooth="yes"/>
      <point x="45" y="59"/>
      <point x="97" y="0"/>
    </contour>
  </outline>
</glyph>
<glyph name="N" format="2">
  <advance width="565"/>
  <unicode hex="004E"/>
  <outline>
    <contour>
      <point x="92" y="0" type="curve" smooth="yes"/>
      <point x="128" y="0"/>
      <point x="141" y="23"/>
      <point x="146" y="45" type="curve" smooth="yes"/>
      <point x="252" y="472" type="line"/>
      <point x="235" y="471" type="line"/>
      <point x="354" y="34" type="line" smooth="yes"/>
      <point x="359" y="14"/>
      <point x="378" y="0"/>
      <point x="404" y="0" type="curve" smooth="yes"/>
      <point x="435" y="0"/>
      <point x="451" y="24"/>
      <point x="456" y="43" type="curve" smooth="yes"/>
      <point x="589" y="587" type="line" smooth="yes"/>
      <point x="600" y="630"/>
      <point x="585" y="650"/>
      <point x="546" y="650" type="curve" smooth="yes"/>
      <point x="515" y="650"/>
      <point x="497" y="633"/>
      <point x="491" y="608" type="curve" smooth="yes"/>
      <point x="388" y="187" type="line"/>
      <point x="405" y="188" type="line"/>
      <point x="290" y="614" type="line" smooth="yes"/>
      <point x="286" y="629"/>
      <point x="268" y="650"/>
      <point x="237" y="650" type="curve" smooth="yes"/>
      <point x="199" y="650"/>
      <point x="188" y="634"/>
      <point x="181" y="606" type="curve" smooth="yes"/>
      <point x="46" y="61" type="line" smooth="yes"/>
      <point x="37" y="28"/>
      <point x="52" y="0"/>
    </contour>
  </outline>
</glyph>
<glyph name="Q" format="2">
  <advance width="485"/>
  <unicode hex="0051"/>
  <outline>
    <contour>
      <point x="216" y="0" type="curve" smooth="yes"/>
      <point x="336" y="0"/>
      <point x="443" y="124"/>
      <point x="491" y="345" type="curve" smooth="yes"/>
      <point x="535" y="548"/>
      <point x="467" y="650"/>
      <point x="346" y="650" type="curve" smooth="yes"/>
      <point x="206" y="650"/>
      <point x="94" y="515"/>
      <point x="65" y="274" type="curve" smooth="yes"/>
      <point x="44" y="91"/>
      <point x="111" y="0"/>
    </contour>
    <contour>
      <point x="217" y="97" type="curve" smooth="yes"/>
      <point x="163" y="97"/>
      <point x="158" y="193"/>
      <point x="168" y="276" type="curve" smooth="yes"/>
      <point x="187" y="436"/>
      <point x="246" y="553"/>
      <point x="341" y="553" type="curve" smooth="yes"/>
      <point x="407" y="553"/>
      <point x="409" y="446"/>
      <point x="389" y="354" type="curve" smooth="yes"/>
      <point x="356" y="205"/>
      <point x="296" y="97"/>
    </contour>
    <contour>
      <point x="393" y="-31" type="curve" smooth="yes"/>
      <point x="417" y="-18"/>
      <point x="425" y="17"/>
      <point x="409" y="44" type="curve" smooth="yes"/>
      <point x="315" y="192" type="line" smooth="yes"/>
      <point x="297" y="220"/>
      <point x="269" y="229"/>
      <point x="241" y="210" type="curve" smooth="yes"/>
      <point x="215" y="193"/>
      <point x="213" y="165"/>
      <point x="231" y="137" type="curve" smooth="yes"/>
      <point x="322" y="-5" type="line" smooth="yes"/>
      <point x="342" y="-36"/>
      <point x="371" y="-43"/>
    </contour>
  </outline>
</glyph>
<glyph name="S" format="2">
  <advance width="464"/>
  <unicode hex="0053"/>
  <outline>
    <contour>
      <point x="225" y="0" type="curve" smooth="yes"/>
      <point x="322" y="0"/>
      <point x="403" y="64"/>
      <point x="427" y="171" type="curve" smooth="yes"/>
      <point x="454" y="293"/>
      <point x="416" y="358"/>
      <point x="285" y="393" type="curve" smooth="yes"/>
      <point x="239" y="404"/>
      <point x="215" y="425"/>
      <point x="223" y="453" type="curve" smooth="yes"/>
      <point x="236" y="509"/>
      <point x="294" y="553"/>
      <point x="346" y="553" type="curve" smooth="yes"/>
      <point x="376" y="553"/>
      <point x="390" y="525"/>
      <point x="403" y="485" type="curve" smooth="yes"/>
      <point x="410" y="460"/>
      <point x="436" y="448"/>
      <point x="461" y="453" type="curve" smooth="yes"/>
      <point x="496" y="459"/>
      <point x="506" y="493"/>
      <point x="500" y="513" type="curve" smooth="yes"/>
      <point x="473" y="607"/>
      <point x="424" y="650"/>
      <point x="351" y="650" type="curve" smooth="yes"/>
      <point x="252" y="650"/>
      <point x="149" y="576"/>
      <point x="125" y="477" type="curve" smooth="yes"/>
      <point x="104" y="389"/>
      <point x="144" y="325"/>
      <point x="262" y="294" type="curve" smooth="yes"/>
      <point x="321" y="278"/>
      <point x="341" y="249"/>
      <point x="328" y="191" type="curve" smooth="yes"/>
      <point x="315" y="135"/>
      <point x="278" y="97"/>
      <point x="227" y="97" type="curve" smooth="yes"/>
      <point x="181" y="97"/>
      <point x="153" y="133"/>
      <point x="148" y="184" type="curve" smooth="yes"/>
      <point x="146" y="211"/>
      <point x="129" y="228"/>
      <point x="94" y="226" type="curve" smooth="yes"/>
      <point x="60" y="224"/>
      <point x="45" y="205"/>
      <point x="47" y="175" type="curve" smooth="yes"/>
      <point x="59" y="64"/>
      <point x="129" y="0"/>
    </contour>
  </outline>
</glyph>
<glyph name="T" format="2">
  <advance width="480"/>
  <unicode hex="0054"/>
  <outline>
    <contour>
      <point x="206" y="0" type="curve" smooth="yes"/>
      <point x="240" y="0"/>
      <point x="253" y="24"/>
      <point x="258" y="43" type="curve" smooth="yes"/>
      <point x="398" y="601" type="line"/>
      <point x="294" y="601" type="line"/>
      <point x="159" y="63" type="line" smooth="yes"/>
      <point x="151" y="32"/>
      <point x="171" y="0"/>
    </contour>
    <contour>
      <point x="183" y="554" type="curve" smooth="yes"/>
      <point x="507" y="554" type="line" smooth="yes"/>
      <point x="550" y="554"/>
      <point x="558" y="578"/>
      <point x="558" y="601" type="curve" smooth="yes"/>
      <point x="558" y="625"/>
      <point x="549" y="650"/>
      <point x="507" y="650" type="curve" smooth="yes"/>
      <point x="183" y="650" type="line" smooth="yes"/>
      <point x="141" y="650"/>
      <point x="132" y="625"/>
      <point x="132" y="601" type="curve" smooth="yes"/>
      <point x="132" y="578"/>
      <point x="140" y="554"/>
    </contour>
  </outline>
</glyph>
<glyph name="U" format="2">
  <advance width="559"/>
  <unicode hex="0055"/>
  <outline>
    <contour>
      <point x="206" y="0" type="curve" smooth="yes"/>
      <point x="316" y="0"/>
      <point x="389" y="123"/>
      <point x="429" y="302" type="curve" smooth="yes"/>
      <point x="463" y="453" type="line"/>
      <point x="448" y="455" type="line"/>
      <point x="396" y="250"/>
      <point x="300" y="96"/>
      <point x="216" y="96" type="curve" smooth="yes"/>
      <point x="168" y="96"/>
      <point x="178" y="180"/>
      <point x="191" y="230" type="curve" smooth="yes"/>
      <point x="281" y="588" type="line" smooth="yes"/>
      <point x="289" y="617"/>
      <point x="271" y="650"/>
      <point x="240" y="650" type="curve" smooth="yes"/>
      <point x="212" y="650.0"/>
      <point x="188" y="633"/>
      <point x="181" y="604" type="curve" smooth="yes"/>
      <point x="92" y="249" type="line" smooth="yes"/>
      <point x="48" y="76"/>
      <point x="106" y="0"/>
    </contour>
    <contour>
      <point x="392" y="0" type="curve" smooth="yes"/>
      <point x="415" y="0"/>
      <point x="440" y="11"/>
      <point x="447" y="40" type="curve" smooth="yes"/>
      <point x="586" y="590" type="line" smooth="yes"/>
      <point x="594" y="620"/>
      <point x="583" y="650"/>
      <point x="542" y="650" type="curve" smooth="yes"/>
      <point x="507" y="650"/>
      <point x="491" y="631"/>
      <point x="486" y="608" type="curve" smooth="yes"/>
      <point x="348" y="61" type="line" smooth="yes"/>
      <point x="340" y="22"/>
      <point x="364" y="0"/>
    </contour>
  </outline>
</glyph>
<glyph name="V" format="2">
  <advance width="474"/>
  <unicode hex="0056"/>
  <outline>
    <contour>
      <point x="214" y="0" type="curve" smooth="yes"/>
      <point x="245" y="0"/>
      <point x="257" y="15"/>
      <point x="268" y="38" type="curve" smooth="yes"/>
      <point x="537" y="581" type="line" smooth="yes"/>
      <point x="560" y="628"/>
      <point x="528" y="650"/>
      <point x="496" y="650" type="curve" smooth="yes"/>
      <point x="466" y="650"/>
      <point x="454" y="639"/>
      <point x="440" y="611" type="curve" smooth="yes"/>
      <point x="203" y="128" type="line"/>
      <point x="259" y="114" type="line"/>
      <point x="234" y="602" type="line" smooth="yes"/>
      <point x="233" y="623"/>
      <point x="224" y="650"/>
      <point x="182" y="650" type="curve" smooth="yes"/>
      <point x="145" y="650"/>
      <point x="131" y="629"/>
      <point x="133" y="597" type="curve" smooth="yes"/>
      <point x="163" y="48" type="line" smooth="yes"/>
      <point x="164" y="28"/>
      <point x="178" y="0"/>
    </contour>
  </outline>
</glyph>
<glyph name="X" format="2">
  <advance width="516"/>
  <unicode hex="0058"/>
  <outline>
    <contour>
      <point x="33" y="11" type="curve" smooth="yes"/>
      <point x="52" y="-5"/>
      <point x="84" y="-8"/>
      <point x="108" y="21" type="curve" smooth="yes"/>
      <point x="570" y="567" type="line" smooth="yes"/>
      <point x="598" y="600"/>
      <point x="583" y="626"/>
      <point x="566" y="639" type="curve" smooth="yes"/>
      <point x="549" y="653"/>
      <point x="514" y="657"/>
      <point x="490" y="628" type="curve" smooth="yes"/>
      <point x="26" y="80" type="line" smooth="yes"/>
      <point x="4" y="54"/>
      <point x="14" y="26"/>
    </contour>
    <contour>
      <point x="418" y="5" type="curve" smooth="yes"/>
      <point x="437" y="14"/>
      <point x="452" y="37"/>
      <point x="441" y="68" type="curve" smooth="yes"/>
      <point x="254" y="614" type="line" smooth="yes"/>
      <point x="240" y="650"/>
      <point x="204" y="655"/>
      <point x="182" y="647" type="curve" smooth="yes"/>
      <point x="162" y="639"/>
      <point x="145" y="622"/>
      <point x="159" y="581" type="curve" smooth="yes"/>
      <point x="345" y="38" type="line" smooth="yes"/>
      <point x="359" y="1"/>
      <point x="394" y="-5"/>
    </contour>
  </outline>
</glyph>
<glyph name="Z" format="2">
  <advance width="532"/>
  <unicode hex="005A"/>
  <outline>
    <contour>
      <point x="66" y="0" type="curve" smooth="yes"/>
      <point x="411" y="0" type="line" smooth="yes"/>
      <point x="453" y="0"/>
      <point x="462" y="25"/>
      <point x="462" y="49" type="curve" smooth="yes"/>
      <point x="462" y="72"/>
      <point x="453" y="97"/>
      <point x="411" y="97" type="curve" smooth="yes"/>
      <point x="111" y="97" type="line"/>
      <point x="132" y="52" type="line"/>
      <point x="558" y="567" type="line" smooth="yes"/>
      <point x="586" y="601"/>
      <point x="570" y="626"/>
      <point x="557" y="638" type="curve" smooth="yes"/>
      <point x="547" y="647"/>
      <point x="538.0" y="650.0"/>
      <point x="522" y="650" type="curve" smooth="yes"/>
      <point x="203" y="650" type="line" smooth="yes"/>
      <point x="161" y="650"/>
      <point x="152" y="625"/>
      <point x="152" y="601" type="curve" smooth="yes"/>
      <point x="152" y="578"/>
      <point x="161" y="553"/>
      <point x="203" y="553" type="curve" smooth="yes"/>
      <point x="475" y="553" type="line"/>
      <point x="454" y="598" type="line"/>
      <point x="25" y="80" type="line" smooth="yes"/>
      <point x="9" y="61"/>
      <point x="11" y="34"/>
      <point x="22" y="18" type="curve" smooth="yes"/>
      <point x="28" y="11"/>
      <point x="45" y="0"/>
    </contour>
  </outline>
</glyph>
<glyph name="backslash" format="2">
  <advance width="403"/>
  <unicode hex="005C"/>
  <outline>
    <contour>
      <point x="297" y="0" type="curve" smooth="yes"/>
      <point x="329" y="0"/>
      <point x="353" y="25"/>
      <point x="345" y="64" type="curve" smooth="yes"/>
      <point x="220" y="608" type="line" smooth="yes"/>
      <point x="213" y="632"/>
      <point x="202" y="650"/>
      <point x="171" y="650" type="curve" smooth="yes"/>
      <point x="139" y="650"/>
      <point x="115" y="625"/>
      <point x="123" y="586" type="curve" smooth="yes"/>
      <point x="248" y="42" type="line" smooth="yes"/>
      <point x="255" y="18"/>
      <point x="266" y="0"/>
    </contour>
  </outline>
</glyph>
<glyph name="a" format="2">
  <advance width="353"/>
  <unicode hex="0061"/>
  <outline>
    <contour>
      <point x="123" y="0" type="curve" smooth="yes"/>
      <point x="189" y="0"/>
      <point x="220" y="75"/>
      <point x="248" y="180" type="curve" smooth="yes"/>
      <point x="277" y="288"/>
      <point x="281" y="359"/>
      <point x="212" y="359" type="curve" smooth="yes"/>
      <point x="135" y="359"/>
      <point x="63" y="292"/>
      <point x="36" y="184" type="curve" smooth="yes"/>
      <point x="8" y="70"/>
      <point x="43" y="0"/>
    </contour>
    <contour>
      <point x="144" y="90" type="curve" smooth="yes"/>
      <point x="123" y="90"/>
      <point x="117" y="118"/>
      <point x="129" y="164" type="curve" smooth="yes"/>
      <point x="145" y="229"/>
      <point x="176" y="269"/>
      <point x="210" y="269" type="curve" smooth="yes"/>
      <point x="230" y="269"/>
      <point x="236" y="243"/>
      <point x="225" y="200" type="curve" smooth="yes"/>
      <point x="208" y="132"/>
      <point x="177" y="90"/>
    </contour>
    <contour>
      <point x="231" y="0" type="curve" smooth="yes"/>
      <point x="268" y="0"/>
      <point x="277" y="17"/>
      <point x="284" y="46" type="curve" smooth="yes"/>
      <point x="347" y="301" type="line" smooth="yes"/>
      <point x="356" y="338"/>
      <point x="341" y="357"/>
      <point x="308" y="357" type="curve" smooth="yes"/>
      <point x="277" y="357"/>
      <point x="261" y="345"/>
      <point x="254" y="317" type="curve" smooth="yes"/>
      <point x="191" y="62" type="line" smooth="yes"/>
      <point x="181" y="23"/>
      <point x="194" y="0"/>
    </contour>
  </outline>
</glyph>
<glyph name="b" format="2">
  <advance width="362"/>
  <unicode hex="0062"/>
  <outline>
    <contour>
      <point x="69" y="0" type="curve" smooth="yes"/>
      <point x="109" y="0"/>
      <point x="111" y="20"/>
      <point x="119" y="51" type="curve" smooth="yes"/>
      <point x="254" y="590" type="line" smooth="yes"/>
      <point x="264" y="630"/>
      <point x="254" y="650"/>
      <point x="219" y="650" type="curve" smooth="yes"/>
      <point x="187" y="650"/>
      <point x="170" y="637"/>
      <point x="162" y="607" type="curve" smooth="yes"/>
      <point x="26" y="66" type="line" smooth="yes"/>
      <point x="16" y="25"/>
      <point x="29" y="0"/>
    </contour>
    <contour>
      <point x="172" y="0" type="curve" smooth="yes"/>
      <point x="237" y="0"/>
      <point x="309" y="69"/>
      <point x="337" y="180" type="curve" smooth="yes"/>
      <point x="364" y="291"/>
      <point x="329" y="359"/>
      <point x="263" y="359" type="curve" smooth="yes"/>
      <point x="176" y="359"/>
      <point x="151" y="291"/>
      <point x="125" y="184" type="curve" smooth="yes"/>
      <point x="95" y="63"/>
      <point x="94" y="0"/>
    </contour>
    <contour>
      <point x="163" y="90" type="curve" smooth="yes"/>
      <point x="142" y="90"/>
      <point x="136" y="118"/>
      <point x="148" y="164" type="curve" smooth="yes"/>
      <point x="164" y="229"/>
      <point x="195" y="269"/>
      <point x="229" y="269" type="curve" smooth="yes"/>
      <point x="249" y="269"/>
      <point x="255" y="243"/>
      <point x="244" y="200" type="curve" smooth="yes"/>
      <point x="227" y="132"/>
      <point x="196" y="90"/>
    </contour>
  </outline>
</glyph>
<glyph name="c" format="2">
  <advance width="321"/>
  <unicode hex="0063"/>
  <outline>
    <contour>
      <point x="130" y="0" type="curve" smooth="yes"/>
      <point x="193" y="0"/>
      <point x="250" y="43"/>
      <point x="278" y="112" type="curve" smooth="yes"/>
      <point x="288" y="136"/>
      <point x="277" y="162"/>
      <point x="252" y="173" type="curve" smooth="yes"/>
      <point x="228" y="183"/>
      <point x="202" y="173"/>
      <point x="191" y="148" type="curve" smooth="yes"/>
      <point x="177" y="115"/>
      <point x="155" y="90"/>
      <point x="140" y="90" type="curve" smooth="yes"/>
      <point x="121" y="90"/>
      <point x="118" y="119"/>
      <point x="130" y="167" type="curve" smooth="yes"/>
      <point x="139" y="203"/>
      <point x="170" y="268"/>
      <point x="201" y="268" type="curve" smooth="yes"/>
      <point x="207" y="268"/>
      <point x="210" y="264"/>
      <point x="210" y="256" type="curve" smooth="yes"/>
      <point x="210" y="232"/>
      <point x="233" y="210"/>
      <point x="270" y="224" type="curve" smooth="yes"/>
      <point x="291" y="231"/>
      <point x="304" y="252"/>
      <point x="300" y="277" type="curve" smooth="yes"/>
      <point x="292" y="326"/>
      <point x="263" y="359"/>
      <point x="212" y="359" type="curve" smooth="yes"/>
      <point x="126" y="359"/>
      <point x="61" y="283"/>
      <point x="32" y="169" type="curve" smooth="yes"/>
      <point x="8" y="72"/>
      <point x="50" y="0"/>
    </contour>
  </outline>
</glyph>
<glyph name="d" format="2">
  <advance width="455"/>
  <unicode hex="0064"/>
  <outline>
    <contour>
      <point x="277" y="0" type="curve" smooth="yes"/>
      <point x="316" y="0"/>
      <point x="362" y="29"/>
      <point x="406" y="86" type="curve" smooth="yes"/>
      <point x="423" y="109"/>
      <point x="428" y="126"/>
      <point x="428" y="143" type="curve" smooth="yes"/>
      <point x="428" y="164"/>
      <point x="414" y="181"/>
      <point x="393" y="181" type="curve" smooth="yes"/>
      <point x="371" y="181"/>
      <point x="357" y="167"/>
      <point x="344" y="141" type="curve" smooth="yes"/>
      <point x="331" y="115"/>
      <point x="308" y="87"/>
      <point x="302" y="87" type="curve" smooth="yes"/>
      <point x="294" y="87"/>
      <point x="299" y="115"/>
      <point x="303" y="130" type="curve" smooth="yes"/>
      <point x="419" y="596" type="line" smooth="yes"/>
      <point x="428" y="632"/>
      <point x="413" y="650"/>
      <point x="381" y="650" type="curve" smooth="yes"/>
      <point x="351" y="650"/>
      <point x="335" y="639"/>
      <point x="328" y="611" type="curve" smooth="yes"/>
      <point x="213" y="151" type="line" smooth="yes"/>
      <point x="183" y="32"/>
      <point x="225" y="0"/>
    </contour>
    <contour>
      <point x="123" y="0" type="curve" smooth="yes"/>
      <point x="189" y="0"/>
      <point x="220" y="75"/>
      <point x="248" y="180" type="curve" smooth="yes"/>
      <point x="277" y="288"/>
      <point x="281" y="359"/>
      <point x="212" y="359" type="curve" smooth="yes"/>
      <point x="135" y="359"/>
      <point x="63" y="292"/>
      <point x="36" y="184" type="curve" smooth="yes"/>
      <point x="8" y="70"/>
      <point x="43" y="0"/>
    </contour>
    <contour>
      <point x="144" y="90" type="curve" smooth="yes"/>
      <point x="123" y="90"/>
      <point x="117" y="118"/>
      <point x="129" y="164" type="curve" smooth="yes"/>
      <point x="145" y="229"/>
      <point x="176" y="269"/>
      <point x="210" y="269" type="curve" smooth="yes"/>
      <point x="230" y="269"/>
      <point x="236" y="243"/>
      <point x="225" y="200" type="curve" smooth="yes"/>
      <point x="208" y="132"/>
      <point x="177" y="90"/>
    </contour>
  </outline>
</glyph>
<glyph name="e" format="2">
  <advance width="336"/>
  <unicode hex="0065"/>
  <outline>
    <contour>
      <point x="123" y="0" type="curve" smooth="yes"/>
      <point x="190" y="0"/>
      <point x="256" y="36"/>
      <point x="317" y="107" type="curve" smooth="yes"/>
      <point x="337" y="131"/>
      <point x="331" y="159"/>
      <point x="313" y="173" type="curve" smooth="yes"/>
      <point x="290" y="190"/>
      <point x="261" y="186"/>
      <point x="245" y="167" type="curve" smooth="yes"/>
      <point x="201" y="116"/>
      <point x="164" y="90"/>
      <point x="139" y="90" type="curve" smooth="yes"/>
      <point x="119" y="90"/>
      <point x="117" y="119"/>
      <point x="128" y="159" type="curve" smooth="yes"/>
      <point x="141" y="213"/>
      <point x="165" y="269"/>
      <point x="196" y="269" type="curve" smooth="yes"/>
      <point x="200" y="269"/>
      <point x="202" y="267"/>
      <point x="202" y="263" type="curve" smooth="yes"/>
      <point x="202" y="234"/>
      <point x="138" y="194"/>
      <point x="90" y="183" type="curve"/>
      <point x="79" y="113" type="line"/>
      <point x="211" y="152"/>
      <point x="296" y="224"/>
      <point x="296" y="283" type="curve" smooth="yes"/>
      <point x="296" y="323"/>
      <point x="260" y="359"/>
      <point x="209" y="359" type="curve" smooth="yes"/>
      <point x="131" y="359"/>
      <point x="62" y="287"/>
      <point x="35" y="179" type="curve" smooth="yes"/>
      <point x="4" y="55"/>
      <point x="55" y="0"/>
    </contour>
  </outline>
</glyph>
<glyph name="f" format="2">
  <advance width="288"/>
  <unicode hex="0066"/>
  <outline>
    <contour>
      <point x="92" y="261" type="curve" smooth="yes"/>
      <point x="266" y="261" type="line" smooth="yes"/>
      <point x="309" y="261"/>
      <point x="318" y="286"/>
      <point x="318" y="310" type="curve" smooth="yes"/>
      <point x="318" y="333"/>
      <point x="310" y="357"/>
      <point x="266" y="357" type="curve" smooth="yes"/>
      <point x="92" y="357" type="line" smooth="yes"/>
      <point x="48" y="357"/>
      <point x="40" y="333"/>
      <point x="40" y="310" type="curve" smooth="yes"/>
      <point x="40" y="286"/>
      <point x="50" y="261"/>
    </contour>
    <contour>
      <point x="88" y="0" type="curve" smooth="yes"/>
      <point x="123" y="0"/>
      <point x="137" y="17"/>
      <point x="145" y="50" type="curve" smooth="yes"/>
      <point x="255" y="491" type="line" smooth="yes"/>
      <point x="261" y="517"/>
      <point x="266" y="544"/>
      <point x="272" y="544" type="curve" smooth="yes"/>
      <point x="278" y="544"/>
      <point x="281" y="535"/>
      <point x="283" y="530" type="curve" smooth="yes"/>
      <point x="295" y="498"/>
      <point x="322" y="489"/>
      <point x="350" y="501" type="curve" smooth="yes"/>
      <point x="377" y="513"/>
      <point x="388" y="536"/>
      <point x="378" y="565" type="curve" smooth="yes"/>
      <point x="357" y="625"/>
      <point x="322" y="650"/>
      <point x="282" y="650" type="curve" smooth="yes"/>
      <point x="227" y="650"/>
      <point x="181" y="612"/>
      <point x="157" y="514" type="curve" smooth="yes"/>
      <point x="46" y="69" type="line" smooth="yes"/>
      <point x="36" y="29"/>
      <point x="49" y="0"/>
    </contour>
  </outline>
</glyph>
<glyph name="g" format="2">
  <advance width="351"/>
  <unicode hex="0067"/>
  <outline>
    <contour>
      <point x="123" y="0" type="curve" smooth="yes"/>
      <point x="189" y="0"/>
      <point x="220" y="75"/>
      <point x="248" y="180" type="curve" smooth="yes"/>
      <point x="277" y="288"/>
      <point x="281" y="359"/>
      <point x="212" y="359" type="curve" smooth="yes"/>
      <point x="135" y="359"/>
      <point x="63" y="292"/>
      <point x="36" y="184" type="curve" smooth="yes"/>
      <point x="8" y="70"/>
      <point x="43" y="0"/>
    </contour>
    <contour>
      <point x="144" y="90" type="curve" smooth="yes"/>
      <point x="123" y="90"/>
      <point x="117" y="118"/>
      <point x="129" y="164" type="curve" smooth="yes"/>
      <point x="145" y="229"/>
      <point x="176" y="269"/>
      <point x="210" y="269" type="curve" smooth="yes"/>
      <point x="230" y="269"/>
      <point x="236" y="243"/>
      <point x="225" y="200" type="curve" smooth="yes"/>
      <point x="208" y="132"/>
      <point x="177" y="90"/>
    </contour>
    <contour>
      <point x="107" y="-300" type="curve" smooth="yes"/>
      <point x="169" y="-300"/>
      <point x="207" y="-263"/>
      <point x="227" y="-181" type="curve" smooth="yes"/>
      <point x="347" y="305" type="line" smooth="yes"/>
      <point x="353" y="330"/>
      <point x="347" y="359"/>
      <point x="310" y="359" type="curve" smooth="yes"/>
      <point x="272.0" y="359"/>
      <point x="260" y="340"/>
      <point x="255" y="320" type="curve" smooth="yes"/>
      <point x="135" y="-164" type="line" smooth="yes"/>
      <point x="130" y="-185"/>
      <point x="123" y="-204"/>
      <point x="108" y="-204" type="curve" smooth="yes"/>
      <point x="95" y="-204"/>
      <point x="82" y="-188"/>
      <point x="69" y="-166" type="curve" smooth="yes"/>
      <point x="61" y="-152"/>
      <point x="44" y="-141"/>
      <point x="18" y="-145" type="curve" smooth="yes"/>
      <point x="-13" y="-150"/>
      <point x="-38" y="-183"/>
      <point x="-20" y="-215" type="curve" smooth="yes"/>
      <point x="11" y="-273"/>
      <point x="55" y="-300"/>
    </contour>
  </outline>
</glyph>
<glyph name="j" format="2">
  <advance width="197"/>
  <unicode hex="006A"/>
  <outline>
    <contour>
      <point x="-48" y="-300" type="curve" smooth="yes"/>
      <point x="7" y="-300"/>
      <point x="39" y="-270"/>
      <point x="55" y="-205" type="curve" smooth="yes"/>
      <point x="181" y="299" type="line" smooth="yes"/>
      <point x="190" y="336"/>
      <point x="177" y="357"/>
      <point x="145" y="357" type="curve" smooth="yes"/>
      <point x="113" y="357"/>
      <point x="96" y="347"/>
      <point x="88" y="314" type="curve" smooth="yes"/>
      <point x="-35" y="-180" type="line" smooth="yes"/>
      <point x="-38" y="-190"/>
      <point x="-42" y="-198"/>
      <point x="-45" y="-198" type="curve" smooth="yes"/>
      <point x="-46" y="-198"/>
      <point x="-48" y="-196"/>
      <point x="-49" y="-193" type="curve" smooth="yes"/>
      <point x="-60" y="-161"/>
      <point x="-74" y="-152"/>
      <point x="-106" y="-161" type="curve" smooth="yes"/>
      <point x="-141" y="-171"/>
      <point x="-154" y="-192"/>
      <point x="-142" y="-228" type="curve" smooth="yes"/>
      <point x="-126" y="-274"/>
      <point x="-89" y="-300"/>
    </contour>
    <contour>
      <point x="172" y="393" type="curve" smooth="yes"/>
      <point x="200" y="393"/>
      <point x="224" y="418"/>
      <point x="224" y="444" type="curve" smooth="yes"/>
      <point x="224" y="472"/>
      <point x="199" y="494"/>
      <point x="172" y="494" type="curve" smooth="yes"/>
      <point x="141" y="494"/>
      <point x="121" y="469"/>
      <point x="121" y="444" type="curve" smooth="yes"/>
      <point x="121" y="418"/>
      <point x="144" y="393"/>
    </contour>
  </outline>
</glyph>
<glyph name="k" format="2">
  <advance width="366"/>
  <unicode hex="006B"/>
  <outline>
    <contour>
      <point x="69" y="0" type="curve" smooth="yes"/>
      <point x="109" y="0"/>
      <point x="111" y="20"/>
      <point x="119" y="51" type="curve" smooth="yes"/>
      <point x="254" y="590" type="line" smooth="yes"/>
      <point x="264" y="628"/>
      <point x="256" y="648"/>
      <point x="221" y="650" type="curve" smooth="yes"/>
      <point x="188" y="652"/>
      <point x="170" y="638"/>
      <point x="162" y="607" type="curve" smooth="yes"/>
      <point x="26" y="66" type="line" smooth="yes"/>
      <point x="16" y="25"/>
      <point x="29" y="0"/>
    </contour>
    <contour>
      <point x="271" y="0" type="curve" smooth="yes"/>
      <point x="316" y="0"/>
      <point x="344" y="38"/>
      <point x="314" y="82" type="curve" smooth="yes"/>
      <point x="145" y="328" type="line"/>
      <point x="110" y="202" type="line"/>
      <point x="234" y="19" type="line" smooth="yes"/>
      <point x="244" y="5"/>
      <point x="258" y="0"/>
    </contour>
    <contour>
      <point x="192" y="159" type="curve" smooth="yes"/>
      <point x="298" y="159"/>
      <point x="367" y="213"/>
      <point x="367" y="289" type="curve" smooth="yes"/>
      <point x="367" y="333"/>
      <point x="340" y="359"/>
      <point x="298" y="359" type="curve" smooth="yes"/>
      <point x="197" y="359"/>
      <point x="131" y="278"/>
      <point x="131" y="230" type="curve" smooth="yes"/>
      <point x="131" y="188"/>
      <point x="164" y="159"/>
    </contour>
    <contour>
      <point x="224" y="226" type="curve" smooth="yes"/>
      <point x="215" y="226"/>
      <point x="209" y="232"/>
      <point x="209" y="240" type="curve" smooth="yes"/>
      <point x="209" y="259"/>
      <point x="243" y="280"/>
      <point x="264" y="280" type="curve" smooth="yes"/>
      <point x="273" y="280"/>
      <point x="279" y="275"/>
      <point x="279" y="267" type="curve" smooth="yes"/>
      <point x="279" y="248"/>
      <point x="245" y="226"/>
    </contour>
  </outline>
</glyph>
<glyph name="l" format="2">
  <advance width="290"/>
  <unicode hex="006C"/>
  <outline>
    <contour>
      <point x="112" y="0" type="curve" smooth="yes"/>
      <point x="151" y="0"/>
      <point x="197" y="29"/>
      <point x="241" y="86" type="curve" smooth="yes"/>
      <point x="258" y="109"/>
      <point x="263" y="126"/>
      <point x="263" y="143" type="curve" smooth="yes"/>
      <point x="263" y="164"/>
      <point x="249" y="181"/>
      <point x="228" y="181" type="curve" smooth="yes"/>
      <point x="206" y="181"/>
      <point x="192" y="167"/>
      <point x="179" y="141" type="curve" smooth="yes"/>
      <point x="166" y="115"/>
      <point x="143" y="87"/>
      <point x="137" y="87" type="curve" smooth="yes"/>
      <point x="131" y="87"/>
      <point x="136" y="115"/>
      <point x="140" y="130" type="curve" smooth="yes"/>
      <point x="256" y="596" type="line" smooth="yes"/>
      <point x="265" y="632"/>
      <point x="248" y="650"/>
      <point x="216" y="650" type="curve" smooth="yes"/>
      <point x="186" y="650"/>
      <point x="170" y="639"/>
      <point x="163" y="611" type="curve" smooth="yes"/>
      <point x="48" y="151" type="line" smooth="yes"/>
      <point x="18" y="32"/>
      <point x="60" y="0"/>
    </contour>
  </outline>
</glyph>
<glyph name="n" format="2">
  <advance width="363"/>
  <unicode hex="006E"/>
  <outline>
    <contour>
      <point x="244" y="0" type="curve" smooth="yes"/>
      <point x="279" y="0"/>
      <point x="287" y="18"/>
      <point x="294" y="46" type="curve" smooth="yes"/>
      <point x="328" y="184" type="line" smooth="yes"/>
      <point x="368" y="345"/>
      <point x="328" y="359"/>
      <point x="285" y="359" type="curve" smooth="yes"/>
      <point x="230" y="359"/>
      <point x="157" y="296"/>
      <point x="111" y="217" type="curve"/>
      <point x="112" y="64" type="line"/>
      <point x="142" y="163"/>
      <point x="207" y="266"/>
      <point x="236" y="266" type="curve" smooth="yes"/>
      <point x="253" y="266"/>
      <point x="243" y="219"/>
      <point x="239" y="201" type="curve" smooth="yes"/>
      <point x="205" y="61" type="line" smooth="yes"/>
      <point x="196" y="25"/>
      <point x="205" y="0"/>
    </contour>
    <contour>
      <point x="55" y="0" type="curve" smooth="yes"/>
      <point x="91" y="0"/>
      <point x="101" y="18"/>
      <point x="108" y="46" type="curve" smooth="yes"/>
      <point x="171" y="299" type="line" smooth="yes"/>
      <point x="180" y="336"/>
      <point x="167" y="357"/>
      <point x="135" y="357" type="curve" smooth="yes"/>
      <point x="103" y="357"/>
      <point x="86" y="347"/>
      <point x="78" y="314" type="curve" smooth="yes"/>
      <point x="16" y="64" type="line" smooth="yes"/>
      <point x="6" y="25"/>
      <point x="19" y="0"/>
    </contour>
  </outline>
</glyph>
<glyph name="o" format="2">
  <advance width="343"/>
  <unicode hex="006F"/>
  <outline>
    <contour>
      <point x="129" y="0" type="curve" smooth="yes"/>
      <point x="218" y="0"/>
      <point x="290" y="69"/>
      <point x="318" y="180" type="curve" smooth="yes"/>
      <point x="345" y="291"/>
      <point x="310" y="359"/>
      <point x="225" y="359" type="curve" smooth="yes"/>
      <point x="135" y="359"/>
      <point x="63" y="292"/>
      <point x="36" y="184" type="curve" smooth="yes"/>
      <point x="8" y="70"/>
      <point x="43" y="0"/>
    </contour>
    <contour>
      <point x="144" y="90" type="curve" smooth="yes"/>
      <point x="123" y="90"/>
      <point x="117" y="118"/>
      <point x="129" y="164" type="curve" smooth="yes"/>
      <point x="145" y="229"/>
      <point x="176" y="269"/>
      <point x="210" y="269" type="curve" smooth="yes"/>
      <point x="230" y="269"/>
      <point x="236" y="243"/>
      <point x="225" y="200" type="curve" smooth="yes"/>
      <point x="208" y="132"/>
      <point x="177" y="90"/>
    </contour>
  </outline>
</glyph>
<glyph name="p" format="2">
  <advance width="352"/>
  <unicode hex="0070"/>
  <outline>
    <contour>
      <point x="-15" y="-300" type="curve" smooth="yes"/>
      <point x="25" y="-300"/>
      <point x="27" y="-280"/>
      <point x="35" y="-249" type="curve" smooth="yes"/>
      <point x="171" y="298" type="line" smooth="yes"/>
      <point x="181" y="337"/>
      <point x="171" y="357"/>
      <point x="136" y="357" type="curve" smooth="yes"/>
      <point x="103" y="357"/>
      <point x="86" y="345"/>
      <point x="78" y="314" type="curve" smooth="yes"/>
      <point x="-58" y="-234" type="line" smooth="yes"/>
      <point x="-68" y="-275"/>
      <point x="-55" y="-300"/>
    </contour>
    <contour>
      <point x="162" y="0" type="curve" smooth="yes"/>
      <point x="227" y="0"/>
      <point x="299" y="69"/>
      <point x="327" y="180" type="curve" smooth="yes"/>
      <point x="354" y="291"/>
      <point x="319" y="359"/>
      <point x="253" y="359" type="curve" smooth="yes"/>
      <point x="166" y="359"/>
      <point x="141" y="291"/>
      <point x="115" y="184" type="curve" smooth="yes"/>
      <point x="85" y="63"/>
      <point x="84" y="0"/>
    </contour>
    <contour>
      <point x="153" y="90" type="curve" smooth="yes"/>
      <point x="132" y="90"/>
      <point x="126" y="118"/>
      <point x="138" y="164" type="curve" smooth="yes"/>
      <point x="154" y="229"/>
      <point x="185" y="269"/>
      <point x="219" y="269" type="curve" smooth="yes"/>
      <point x="239" y="269"/>
      <point x="245" y="243"/>
      <point x="234" y="200" type="curve" smooth="yes"/>
      <point x="217" y="132"/>
      <point x="186" y="90"/>
    </contour>
  </outline>
</glyph>
<glyph name="q" format="2">
  <advance width="351"/>
  <unicode hex="0071"/>
  <outline>
    <contour>
      <point x="202" y="-300" type="curve" smooth="yes"/>
      <point x="241" y="-300"/>
      <point x="287" y="-271"/>
      <point x="331" y="-214" type="curve" smooth="yes"/>
      <point x="348" y="-191"/>
      <point x="353" y="-174"/>
      <point x="353" y="-157" type="curve" smooth="yes"/>
      <point x="353" y="-136"/>
      <point x="339" y="-119"/>
      <point x="318" y="-119" type="curve" smooth="yes"/>
      <point x="296" y="-119"/>
      <point x="282" y="-133"/>
      <point x="269" y="-159" type="curve" smooth="yes"/>
      <point x="256" y="-185"/>
      <point x="233" y="-213"/>
      <point x="227" y="-213" type="curve" smooth="yes"/>
      <point x="219" y="-213"/>
      <point x="225" y="-185"/>
      <point x="229" y="-170" type="curve" smooth="yes"/>
      <point x="347" y="305" type="line" smooth="yes"/>
      <point x="356" y="341"/>
      <point x="340" y="359"/>
      <point x="308" y="359" type="curve" smooth="yes"/>
      <point x="278" y="359"/>
      <point x="262" y="348"/>
      <point x="255" y="320" type="curve" smooth="yes"/>
      <point x="138" y="-149" type="line" smooth="yes"/>
      <point x="108" y="-268"/>
      <point x="150" y="-300"/>
    </contour>
    <contour>
      <point x="123" y="0" type="curve" smooth="yes"/>
      <point x="189" y="0"/>
      <point x="220" y="75"/>
      <point x="248" y="180" type="curve" smooth="yes"/>
      <point x="277" y="288"/>
      <point x="281" y="359"/>
      <point x="212" y="359" type="curve" smooth="yes"/>
      <point x="135" y="359"/>
      <point x="63" y="292"/>
      <point x="36" y="184" type="curve" smooth="yes"/>
      <point x="8" y="70"/>
      <point x="43" y="0"/>
    </contour>
    <contour>
      <point x="144" y="90" type="curve" smooth="yes"/>
      <point x="123" y="90"/>
      <point x="117" y="118"/>
      <point x="129" y="164" type="curve" smooth="yes"/>
      <point x="145" y="229"/>
      <point x="176" y="269"/>
      <point x="210" y="269" type="curve" smooth="yes"/>
      <point x="230" y="269"/>
      <point x="236" y="243"/>
      <point x="225" y="200" type="curve" smooth="yes"/>
      <point x="208" y="132"/>
      <point x="177" y="90"/>
    </contour>
  </outline>
</glyph>
<glyph name="r" format="2">
  <advance width="335"/>
  <unicode hex="0072"/>
  <outline>
    <contour>
      <point x="57" y="0" type="curve" smooth="yes"/>
      <point x="95" y="0"/>
      <point x="102" y="18"/>
      <point x="110" y="48" type="curve" smooth="yes"/>
      <point x="175" y="302" type="line" smooth="yes"/>
      <point x="183" y="335"/>
      <point x="167" y="357"/>
      <point x="134" y="357" type="curve" smooth="yes"/>
      <point x="105" y="357"/>
      <point x="86" y="346"/>
      <point x="79" y="317" type="curve" smooth="yes"/>
      <point x="17" y="63" type="line" smooth="yes"/>
      <point x="8" y="26"/>
      <point x="17" y="0"/>
    </contour>
    <contour>
      <point x="110" y="51" type="line"/>
      <point x="139" y="155"/>
      <point x="213" y="274"/>
      <point x="243" y="274" type="curve" smooth="yes"/>
      <point x="248" y="274"/>
      <point x="252" y="270"/>
      <point x="254" y="263" type="curve" smooth="yes"/>
      <point x="261" y="236"/>
      <point x="284" y="223"/>
      <point x="314" y="230" type="curve" smooth="yes"/>
      <point x="344" y="238"/>
      <point x="356" y="258"/>
      <point x="350" y="281" type="curve" smooth="yes"/>
      <point x="337" y="333"/>
      <point x="310" y="359"/>
      <point x="272" y="359" type="curve" smooth="yes"/>
      <point x="221" y="359"/>
      <point x="168" y="304"/>
      <point x="121" y="222" type="curve"/>
    </contour>
  </outline>
</glyph>
<glyph name="s" format="2">
  <advance width="326"/>
  <unicode hex="0073"/>
  <outline>
    <contour>
      <point x="138" y="0" type="curve" smooth="yes"/>
      <point x="213" y="0"/>
      <point x="278" y="55"/>
      <point x="287" y="127" type="curve" smooth="yes"/>
      <point x="295" y="188"/>
      <point x="276" y="230"/>
      <point x="183" y="230" type="curve"/>
      <point x="164" y="230"/>
      <point x="163" y="242"/>
      <point x="164" y="249" type="curve" smooth="yes"/>
      <point x="166" y="261"/>
      <point x="179" y="269"/>
      <point x="196" y="269" type="curve" smooth="yes"/>
      <point x="210" y="269"/>
      <point x="219" y="265"/>
      <point x="227" y="258" type="curve" smooth="yes"/>
      <point x="253" y="236"/>
      <point x="280" y="234"/>
      <point x="298" y="252" type="curve" smooth="yes"/>
      <point x="321" y="275"/>
      <point x="319" y="304"/>
      <point x="291" y="328" type="curve" smooth="yes"/>
      <point x="267" y="349"/>
      <point x="238" y="359"/>
      <point x="205" y="359" type="curve" smooth="yes"/>
      <point x="136" y="359"/>
      <point x="81" y="315"/>
      <point x="69" y="254" type="curve" smooth="yes"/>
      <point x="57" y="184"/>
      <point x="84" y="136"/>
      <point x="167" y="136" type="curve" smooth="yes"/>
      <point x="175" y="136"/>
      <point x="194" y="135"/>
      <point x="192" y="119" type="curve" smooth="yes"/>
      <point x="190" y="105"/>
      <point x="168" y="90"/>
      <point x="144" y="90" type="curve" smooth="yes"/>
      <point x="130" y="90"/>
      <point x="119" y="96"/>
      <point x="113" y="106" type="curve" smooth="yes"/>
      <point x="91" y="142"/>
      <point x="71" y="144"/>
      <point x="49" y="132" type="curve" smooth="yes"/>
      <point x="24" y="117"/>
      <point x="16" y="89"/>
      <point x="36" y="58" type="curve" smooth="yes"/>
      <point x="60" y="19"/>
      <point x="94" y="0"/>
    </contour>
  </outline>
</glyph>
<glyph name="u" format="2">
  <advance width="363"/>
  <unicode hex="0075"/>
  <outline>
    <contour>
      <point x="87" y="0" type="curve" smooth="yes"/>
      <point x="142" y="0"/>
      <point x="215" y="63"/>
      <point x="261" y="142" type="curve"/>
      <point x="260" y="293" type="line"/>
      <point x="230" y="194"/>
      <point x="165" y="93"/>
      <point x="136" y="93" type="curve" smooth="yes"/>
      <point x="119" y="93"/>
      <point x="129" y="140"/>
      <point x="133" y="158" type="curve" smooth="yes"/>
      <point x="167" y="296" type="line" smooth="yes"/>
      <point x="176" y="332"/>
      <point x="167" y="357"/>
      <point x="128" y="357" type="curve" smooth="yes"/>
      <point x="93" y="357"/>
      <point x="85.0" y="339.0"/>
      <point x="78" y="311" type="curve" smooth="yes"/>
      <point x="44" y="175" type="line" smooth="yes"/>
      <point x="4" y="14"/>
      <point x="44" y="0"/>
    </contour>
    <contour>
      <point x="236" y="0" type="curve" smooth="yes"/>
      <point x="268" y="0"/>
      <point x="285" y="10"/>
      <point x="293" y="43" type="curve" smooth="yes"/>
      <point x="356" y="293" type="line" smooth="yes"/>
      <point x="366" y="332"/>
      <point x="353" y="357"/>
      <point x="317" y="357" type="curve" smooth="yes"/>
      <point x="281" y="357"/>
      <point x="271" y="339"/>
      <point x="264" y="311" type="curve" smooth="yes"/>
      <point x="200" y="58" type="line" smooth="yes"/>
      <point x="191" y="21"/>
      <point x="204" y="0"/>
    </contour>
  </outline>
</glyph>
<glyph name="v" format="2">
  <advance width="318"/>
  <unicode hex="0076"/>
  <outline>
    <contour>
      <point x="128" y="0" type="curve" smooth="yes"/>
      <point x="155" y="0"/>
      <point x="163" y="8"/>
      <point x="174" y="28" type="curve" smooth="yes"/>
      <point x="320" y="292" type="line" smooth="yes"/>
      <point x="335" y="320"/>
      <point x="321" y="357"/>
      <point x="279" y="357" type="curve" smooth="yes"/>
      <point x="260" y="357"/>
      <point x="245" y="350"/>
      <point x="234" y="329" type="curve" smooth="yes"/>
      <point x="114" y="104" type="line"/>
      <point x="165" y="104" type="line"/>
      <point x="144" y="315" type="line" smooth="yes"/>
      <point x="141" y="348"/>
      <point x="119" y="357"/>
      <point x="98" y="357" type="curve" smooth="yes"/>
      <point x="59" y="357"/>
      <point x="47" y="326"/>
      <point x="50" y="302" type="curve" smooth="yes"/>
      <point x="81" y="39" type="line" smooth="yes"/>
      <point x="84" y="14"/>
      <point x="102" y="0"/>
    </contour>
  </outline>
</glyph>
<glyph name="w" format="2">
  <advance width="493"/>
  <unicode hex="0077"/>
  <outline>
    <contour>
      <point x="128" y="0" type="curve" smooth="yes"/>
      <point x="155" y="0"/>
      <point x="163" y="8"/>
      <point x="174" y="28" type="curve" smooth="yes"/>
      <point x="309" y="281" type="line"/>
      <point x="232" y="307" type="line"/>
      <point x="256" y="39" type="line" smooth="yes"/>
      <point x="258" y="15"/>
      <point x="276" y="0"/>
      <point x="303" y="0" type="curve" smooth="yes"/>
      <point x="330" y="0"/>
      <point x="338" y="8"/>
      <point x="349" y="28" type="curve" smooth="yes"/>
      <point x="495" y="292" type="line" smooth="yes"/>
      <point x="510" y="320"/>
      <point x="496" y="357"/>
      <point x="454" y="357" type="curve" smooth="yes"/>
      <point x="435" y="357"/>
      <point x="420" y="350"/>
      <point x="409" y="329" type="curve" smooth="yes"/>
      <point x="277" y="82" type="line"/>
      <point x="343" y="79" type="line"/>
      <point x="322" y="315" type="line" smooth="yes"/>
      <point x="319" y="348"/>
      <point x="297" y="357"/>
      <point x="276" y="357" type="curve" smooth="yes"/>
      <point x="255" y="357"/>
      <point x="241" y="349"/>
      <point x="231" y="330" type="curve" smooth="yes"/>
      <point x="102" y="82" type="line"/>
      <point x="167" y="79" type="line"/>
      <point x="144" y="315" type="line" smooth="yes"/>
      <point x="141" y="348"/>
      <point x="119" y="357"/>
      <point x="98" y="357" type="curve" smooth="yes"/>
      <point x="59" y="357"/>
      <point x="47" y="326"/>
      <point x="50" y="302" type="curve" smooth="yes"/>
      <point x="81" y="39" type="line" smooth="yes"/>
      <point x="84" y="14"/>
      <point x="102" y="0"/>
    </contour>
  </outline>
</glyph>
<glyph name="x" format="2">
  <advance width="339"/>
  <unicode hex="0078"/>
  <outline>
    <contour>
      <point x="51" y="0" type="curve" smooth="yes"/>
      <point x="63" y="0"/>
      <point x="75" y="1"/>
      <point x="100" y="30" type="curve" smooth="yes"/>
      <point x="312" y="268" type="line" smooth="yes"/>
      <point x="361" y="323"/>
      <point x="331" y="357"/>
      <point x="297" y="357" type="curve" smooth="yes"/>
      <point x="276" y="357"/>
      <point x="261" y="349"/>
      <point x="244" y="330" type="curve" smooth="yes"/>
      <point x="23" y="80" type="line" smooth="yes"/>
      <point x="-18" y="33"/>
      <point x="16" y="0"/>
    </contour>
    <contour>
      <point x="228" y="0" type="curve" smooth="yes"/>
      <point x="258" y="0"/>
      <point x="292" y="17"/>
      <point x="270" y="70" type="curve" smooth="yes"/>
      <point x="164" y="322" type="line" smooth="yes"/>
      <point x="153" y="348"/>
      <point x="135" y="357"/>
      <point x="118" y="357" type="curve" smooth="yes"/>
      <point x="81" y="357"/>
      <point x="59" y="327"/>
      <point x="76" y="288" type="curve" smooth="yes"/>
      <point x="183" y="39" type="line" smooth="yes"/>
      <point x="200" y="0"/>
      <point x="214" y="0"/>
    </contour>
  </outline>
</glyph>
<glyph name="z" format="2">
  <advance width="363"/>
  <unicode hex="007A"/>
  <outline>
    <contour>
      <point x="63" y="0" type="curve" smooth="yes"/>
      <point x="255" y="0" type="line" smooth="yes"/>
      <point x="294" y="0"/>
      <point x="302" y="23"/>
      <point x="302" y="45" type="curve" smooth="yes"/>
      <point x="302" y="67"/>
      <point x="295" y="90"/>
      <point x="255" y="90" type="curve" smooth="yes"/>
      <point x="109" y="90" type="line"/>
      <point x="119" y="42" type="line"/>
      <point x="329" y="278" type="line" smooth="yes"/>
      <point x="363" y="317"/>
      <point x="339" y="357"/>
      <point x="297" y="357" type="curve" smooth="yes"/>
      <point x="126" y="357" type="line" smooth="yes"/>
      <point x="86" y="357"/>
      <point x="78" y="334"/>
      <point x="78" y="312" type="curve"/>
      <point x="78" y="290"/>
      <point x="85" y="267"/>
      <point x="126" y="267" type="curve" smooth="yes"/>
      <point x="264" y="267" type="line"/>
      <point x="247" y="316" type="line"/>
      <point x="33" y="81" type="line" smooth="yes"/>
      <point x="3" y="49"/>
      <point x="27" y="0"/>
    </contour>
  </outline>
</glyph>
<glyph name="degree" format="2">
  <advance width="433"/>
  <unicode hex="00B0"/>
  <guideline x="323" y="516" angle="0" identifier="a8lJXTlcRe"/>
  <outline>
    <contour>
      <point x="299" y="372" type="curve" smooth="yes"/>
      <point x="373" y="372"/>
      <point x="436" y="430"/>
      <point x="436" y="511" type="curve" smooth="yes"/>
      <point x="436" y="592"/>
      <point x="374" y="650"/>
      <point x="300" y="650" type="curve" smooth="yes"/>
      <point x="225" y="650"/>
      <point x="162" y="592"/>
      <point x="162" y="511" type="curve" smooth="yes"/>
      <point x="162" y="430"/>
      <point x="225" y="372"/>
    </contour>
    <contour>
      <point x="299" y="458" type="curve" smooth="yes"/>
      <point x="273" y="458"/>
      <point x="252" y="483"/>
      <point x="252" y="511" type="curve" smooth="yes"/>
      <point x="252" y="539"/>
      <point x="274" y="564"/>
      <point x="300" y="564" type="curve" smooth="yes"/>
      <point x="324" y="564"/>
      <point x="344" y="538"/>
      <point x="344" y="511" type="curve" smooth="yes"/>
      <point x="344" y="484"/>
      <point x="324" y="458"/>
    </contour>
  </outline>
</glyph>
<glyph name="periodcentered" format="2">
  <advance width="219"/>
  <unicode hex="00B7"/>
  <outline>
    <contour>
      <point x="117" y="149" type="curve" smooth="yes"/>
      <point x="150" y="149"/>
      <point x="180" y="179"/>
      <point x="180" y="214" type="curve" smooth="yes"/>
      <point x="180" y="247"/>
      <point x="150" y="275"/>
      <point x="117" y="275" type="curve" smooth="yes"/>
      <point x="82" y="275"/>
      <point x="55" y="247"/>
      <point x="55" y="214" type="curve" smooth="yes"/>
      <point x="55" y="179"/>
      <point x="82" y="149"/>
    </contour>
  </outline>
</glyph>
<glyph name="endash" format="2">
  <advance width="463"/>
  <unicode hex="2013"/>
  <outline>
    <contour>
      <point x="120" y="154" type="curve" smooth="yes"/>
      <point x="346" y="154" type="line" smooth="yes"/>
      <point x="382.0" y="154.0"/>
      <point x="404" y="172"/>
      <point x="404" y="200" type="curve" smooth="yes"/>
      <point x="404" y="227"/>
      <point x="385.0" y="244.0"/>
      <point x="355" y="244" type="curve" smooth="yes"/>
      <point x="129" y="244" type="line" smooth="yes"/>
      <point x="93" y="244"/>
      <point x="71" y="226"/>
      <point x="71" y="198" type="curve" smooth="yes"/>
      <point x="71" y="171"/>
      <point x="90" y="154"/>
    </contour>
  </outline>
</glyph>
<glyph name="ellipsis" format="2">
  <advance width="599"/>
  <unicode hex="2026"/>
  <outline>
    <contour>
      <point x="80" y="0" type="curve" smooth="yes"/>
      <point x="113" y="0"/>
      <point x="143" y="30"/>
      <point x="143" y="65" type="curve" smooth="yes"/>
      <point x="143" y="98"/>
      <point x="113" y="126"/>
      <point x="80" y="126" type="curve" smooth="yes"/>
      <point x="45" y="126"/>
      <point x="18" y="98"/>
      <point x="18" y="65" type="curve" smooth="yes"/>
      <point x="18" y="30"/>
      <point x="45" y="0"/>
    </contour>
    <contour>
      <point x="270" y="0" type="curve" smooth="yes"/>
      <point x="303" y="0"/>
      <point x="333" y="30"/>
      <point x="333" y="65" type="curve" smooth="yes"/>
      <point x="333" y="98"/>
      <point x="303" y="126"/>
      <point x="270" y="126" type="curve" smooth="yes"/>
      <point x="235" y="126"/>
      <point x="208" y="98"/>
      <point x="208" y="65" type="curve" smooth="yes"/>
      <point x="208" y="30"/>
      <point x="235" y="0"/>
    </contour>
    <contour>
      <point x="460" y="0" type="curve" smooth="yes"/>
      <point x="493" y="0"/>
      <point x="523" y="30"/>
      <point x="523" y="65" type="curve" smooth="yes"/>
      <point x="523" y="98"/>
      <point x="493" y="126"/>
      <point x="460" y="126" type="curve" smooth="yes"/>
      <point x="425" y="126"/>
      <point x="398" y="98"/>
      <point x="398" y="65" type="curve" smooth="yes"/>
      <point x="398" y="30"/>
      <point x="425" y="0"/>
    </contour>
  </outline>
</glyph>
<glyph name="infinity" format="2">
  <advance width="730"/>
  <unicode hex="221E"/>
  <outline>
    <contour>
      <point x="203" y="70" type="curve" smooth="yes"/>
      <point x="266" y="70"/>
      <point x="338" y="121"/>
      <point x="395" y="181" type="curve"/>
      <point x="337" y="246" type="line"/>
      <point x="297" y="206"/>
      <point x="245" y="157"/>
      <point x="209" y="157" type="curve" smooth="yes"/>
      <point x="179" y="157"/>
      <point x="167" y="181"/>
      <point x="177" y="220" type="curve" smooth="yes"/>
      <point x="187" y="260"/>
      <point x="213" y="284"/>
      <point x="245" y="284" type="curve" smooth="yes"/>
      <point x="265" y="284"/>
      <point x="295" y="258"/>
      <point x="322" y="217" type="curve" smooth="yes"/>
      <point x="352" y="173" type="line" smooth="yes"/>
      <point x="396" y="109"/>
      <point x="452" y="70"/>
      <point x="496" y="70" type="curve" smooth="yes"/>
      <point x="582" y="70"/>
      <point x="644" y="124"/>
      <point x="662" y="211" type="curve" smooth="yes"/>
      <point x="687" y="310"/>
      <point x="643" y="371"/>
      <point x="546" y="371" type="curve" smooth="yes"/>
      <point x="483" y="371"/>
      <point x="411" y="320"/>
      <point x="354" y="260" type="curve"/>
      <point x="412" y="195" type="line"/>
      <point x="452" y="235"/>
      <point x="504" y="284"/>
      <point x="540" y="284" type="curve" smooth="yes"/>
      <point x="572" y="284"/>
      <point x="582" y="261"/>
      <point x="572" y="221" type="curve" smooth="yes"/>
      <point x="562" y="181"/>
      <point x="538" y="157"/>
      <point x="504" y="157" type="curve" smooth="yes"/>
      <point x="479" y="157"/>
      <point x="449" y="183"/>
      <point x="427" y="224" type="curve" smooth="yes"/>
      <point x="397" y="278" type="line" smooth="yes"/>
      <point x="365" y="335"/>
      <point x="309" y="371"/>
      <point x="251" y="371" type="curve" smooth="yes"/>
      <point x="169" y="371"/>
      <point x="107" y="317"/>
      <point x="87" y="230" type="curve" smooth="yes"/>
      <point x="64" y="131"/>
      <point x="108" y="70"/>
    </contour>
  </outline>
</glyph>
<glyph name="greaterequal" format="2">
  <advance width="426"/>
  <unicode hex="2265"/>
  <outline>
    <contour>
      <point x="88" y="106" type="curve" smooth="yes"/>
      <point x="315" y="106" type="line" smooth="yes"/>
      <point x="349.0" y="106.0"/>
      <point x="361.0" y="130"/>
      <point x="361" y="149" type="curve" smooth="yes"/>
      <point x="361.0" y="169.0"/>
      <point x="349.0" y="192.0"/>
      <point x="315" y="192" type="curve" smooth="yes"/>
      <point x="88" y="192" type="line" smooth="yes"/>
      <point x="54.0" y="192.0"/>
      <point x="42.0" y="169.0"/>
      <point x="42" y="149" type="curve" smooth="yes"/>
      <point x="42.0" y="129"/>
      <point x="54.0" y="106.0"/>
    </contour>
    <contour>
      <point x="118" y="221" type="curve" smooth="yes"/>
      <point x="323" y="221" type="line" smooth="yes"/>
      <point x="356.0" y="221.0"/>
      <point x="369.0" y="244.0"/>
      <point x="369" y="264" type="curve" smooth="yes"/>
      <point x="369.0" y="277.0"/>
      <point x="364.0" y="290.0"/>
      <point x="351" y="299" type="curve" smooth="yes"/>
      <point x="179" y="415" type="line" smooth="yes"/>
      <point x="150.0" y="435.0"/>
      <point x="129.0" y="425.0"/>
      <point x="116" y="409" type="curve"/>
      <point x="102.0" y="389.0"/>
      <point x="99" y="362.0"/>
      <point x="130" y="345" type="curve" smooth="yes"/>
      <point x="229" y="292" type="line"/>
      <point x="242" y="307" type="line"/>
      <point x="118" y="307" type="line" smooth="yes"/>
      <point x="84.0" y="307.0"/>
      <point x="71.0" y="283.0"/>
      <point x="71" y="264" type="curve"/>
      <point x="71.0" y="245.0"/>
      <point x="83.0" y="221.0"/>
    </contour>
  </outline>
</glyph>
